<?xml version="1.0" encoding="utf-8"?>
<!-- Generator: Adobe Illustrator 24.3.0, SVG Export Plug-In . SVG Version: 6.00 Build 0)  -->
<svg version="1.1" id="图层_1" xmlns="http://www.w3.org/2000/svg" xmlns:xlink="http://www.w3.org/1999/xlink" x="0px" y="0px"
	 viewBox="0 0 30 30" style="enable-background:new 0 0 30 30;" xml:space="preserve">
<style type="text/css">
	.st0{fill:#FFFFFF;}
	.st1{opacity:0.9943;fill:#FEFEFE;}
	.st2{opacity:0.9886;fill:#FDFDFD;}
	.st3{opacity:0.983;fill:#FCFCFC;}
	.st4{opacity:0.9773;fill:#FBFBFB;}
	.st5{opacity:0.9716;fill:#FAFAFA;}
	.st6{opacity:0.9659;fill:#F9F9F9;}
	.st7{opacity:0.9602;fill:#F8F8F8;}
	.st8{opacity:0.9545;fill:#F7F7F7;}
	.st9{opacity:0.9489;fill:#F6F6F6;}
	.st10{opacity:0.9432;fill:#F5F5F5;}
	.st11{opacity:0.9375;fill:#F4F4F4;}
	.st12{opacity:0.9318;fill:#F3F3F3;}
	.st13{opacity:0.9261;fill:#F2F2F2;}
	.st14{opacity:0.9205;fill:#F1F1F1;}
	.st15{opacity:0.9148;fill:#F0F0F0;}
	.st16{opacity:0.9091;fill:#EFEFEF;}
	.st17{opacity:0.9034;fill:#EEEEEE;}
	.st18{opacity:0.8977;fill:#EDEDED;}
	.st19{opacity:0.892;fill:#ECECEC;}
	.st20{opacity:0.8864;fill:#EBEBEB;}
	.st21{opacity:0.8807;fill:#EAEAEA;}
	.st22{opacity:0.875;fill:#E9E9E9;}
	.st23{opacity:0.8693;fill:#E8E8E8;}
	.st24{opacity:0.8636;fill:#E7E7E7;}
	.st25{opacity:0.858;fill:#E6E6E6;}
	.st26{opacity:0.8523;fill:#E5E5E5;}
	.st27{opacity:0.8466;fill:#E4E4E4;}
	.st28{opacity:0.8409;fill:#E3E3E3;}
	.st29{opacity:0.8352;fill:#E2E2E2;}
	.st30{opacity:0.8295;fill:#E1E1E1;}
	.st31{opacity:0.8239;fill:#E0E0E0;}
	.st32{opacity:0.8182;fill:#DFDFDF;}
	.st33{opacity:0.8125;fill:#DEDEDE;}
	.st34{opacity:0.8068;fill:#DDDDDD;}
	.st35{opacity:0.8011;fill:#DCDCDC;}
	.st36{opacity:0.7955;fill:#DBDBDB;}
	.st37{opacity:0.7898;fill:#DADADA;}
	.st38{opacity:0.7841;fill:#D9D9D9;}
	.st39{opacity:0.7784;fill:#D8D8D8;}
	.st40{opacity:0.7727;fill:#D7D7D7;}
	.st41{opacity:0.767;fill:#D6D6D6;}
	.st42{opacity:0.7614;fill:#D5D5D5;}
	.st43{opacity:0.7557;fill:#D4D4D4;}
	.st44{opacity:0.75;fill:#D3D3D3;}
	.st45{opacity:0.7443;fill:#D3D3D3;}
	.st46{opacity:0.7386;fill:#D2D2D2;}
	.st47{opacity:0.733;fill:#D1D1D1;}
	.st48{opacity:0.7273;fill:#D0D0D0;}
	.st49{opacity:0.7216;fill:#CFCFCF;}
	.st50{opacity:0.7159;fill:#CECECE;}
	.st51{opacity:0.7102;fill:#CDCDCD;}
	.st52{opacity:0.7045;fill:#CCCCCC;}
	.st53{opacity:0.6989;fill:#CBCBCB;}
	.st54{opacity:0.6932;fill:#CACACA;}
	.st55{opacity:0.6875;fill:#C9C9C9;}
	.st56{opacity:0.6818;fill:#C8C8C8;}
	.st57{opacity:0.6761;fill:#C7C7C7;}
	.st58{opacity:0.6705;fill:#C6C6C6;}
	.st59{opacity:0.6648;fill:#C5C5C5;}
	.st60{opacity:0.6591;fill:#C4C4C4;}
	.st61{opacity:0.6534;fill:#C3C3C3;}
	.st62{opacity:0.6477;fill:#C2C2C2;}
	.st63{opacity:0.642;fill:#C1C1C1;}
	.st64{opacity:0.6364;fill:#C0C0C0;}
	.st65{opacity:0.6307;fill:#BFBFBF;}
	.st66{opacity:0.625;fill:#BEBEBE;}
	.st67{opacity:0.6193;fill:#BDBDBD;}
	.st68{opacity:0.6136;fill:#BCBCBC;}
	.st69{opacity:0.608;fill:#BBBBBB;}
	.st70{opacity:0.6023;fill:#BABABA;}
	.st71{opacity:0.5966;fill:#B9B9B9;}
	.st72{opacity:0.5909;fill:#B8B8B8;}
	.st73{opacity:0.5852;fill:#B7B7B7;}
	.st74{opacity:0.5795;fill:#B6B6B6;}
	.st75{opacity:0.5739;fill:#B5B5B5;}
	.st76{opacity:0.5682;fill:#B4B4B4;}
	.st77{opacity:0.5625;fill:#B3B3B3;}
	.st78{opacity:0.5568;fill:#B2B2B2;}
	.st79{opacity:0.5511;fill:#B1B1B1;}
	.st80{opacity:0.5455;fill:#B0B0B0;}
	.st81{opacity:0.5398;fill:#AFAFAF;}
	.st82{opacity:0.5341;fill:#AEAEAE;}
	.st83{opacity:0.5284;fill:#ADADAD;}
	.st84{opacity:0.5227;fill:#ACACAC;}
	.st85{opacity:0.517;fill:#ABABAB;}
	.st86{opacity:0.5114;fill:#AAAAAA;}
	.st87{opacity:0.5057;fill:#A9A9A9;}
	.st88{opacity:0.5;fill:#A8A8A8;}
	.st89{fill:url(#SVGID_1_);}
	.st90{fill:url(#SVGID_2_);}
	.st91{fill:#F2F5F9;}
	.st92{fill:url(#SVGID_3_);}
	.st93{fill:url(#SVGID_4_);}
	.st94{fill:#F74343;}
	.st95{fill:#DB3131;}
	.st96{fill:url(#SVGID_5_);}
	.st97{fill:#2D2D2D;}
	.st98{opacity:0.5;}
	.st99{fill:#636363;}
	.st100{fill:#B8B5B3;}
	.st101{fill:#F9BF2E;}
	.st102{fill:#EB6D4F;}
	.st103{fill:#F8F8F8;}
	.st104{fill:#29485F;}
</style>
<g>
	<path class="st100" d="M23.67,24.5l-1.54-1.96c-0.71,0.7-1.53,1.29-2.42,1.76l1.61,2.05c0.51,0.65,1.44,0.76,2.09,0.25
		C24.06,26.09,24.18,25.16,23.67,24.5z"/>
	<path class="st100" d="M7.78,22.54L6.24,24.5c-0.51,0.65-0.39,1.59,0.25,2.1c0.65,0.51,1.58,0.39,2.09-0.25l1.61-2.05
		C9.3,23.83,8.49,23.23,7.78,22.54z"/>
	<path class="st101" d="M25.86,4.28c-1.96-1.96-5.13-1.96-7.09,0c-0.3,0.3-0.39,0.73-0.31,1.23c2.86,1.04,5.13,3.31,6.17,6.17
		c0.5,0.08,0.93-0.01,1.23-0.31C27.82,9.41,27.82,6.24,25.86,4.28z"/>
	<path class="st101" d="M11.14,4.28c-1.96-1.96-5.13-1.96-7.09,0c-1.96,1.96-1.96,5.13,0,7.09c0.31,0.31,0.73,0.39,1.23,0.31
		c1.04-2.86,3.31-5.13,6.17-6.16C11.53,5.01,11.45,4.58,11.14,4.28z"/>
	<circle class="st102" cx="14.96" cy="15.18" r="10.28"/>
	<path class="st103" d="M14.96,7.42c-4.28,0-7.76,3.47-7.76,7.76c0,4.28,3.47,7.76,7.76,7.76c4.28,0,7.76-3.47,7.76-7.76
		C22.72,10.9,19.24,7.42,14.96,7.42z"/>
	<g>
		<path class="st104" d="M14.96,8.66c-0.29,0-0.52,0.23-0.52,0.52v1.21c0,0.29,0.23,0.52,0.52,0.52c0.29,0,0.52-0.23,0.52-0.52V9.18
			C15.48,8.89,15.24,8.66,14.96,8.66z"/>
		<path class="st104" d="M14.96,19.45c-0.29,0-0.52,0.23-0.52,0.52v1.21c0,0.29,0.23,0.52,0.52,0.52c0.29,0,0.52-0.23,0.52-0.52
			v-1.21C15.48,19.68,15.24,19.45,14.96,19.45z"/>
		<path class="st104" d="M20.96,14.66h-1.21c-0.29,0-0.52,0.23-0.52,0.52c0,0.29,0.23,0.52,0.52,0.52h1.21
			c0.29,0,0.52-0.23,0.52-0.52C21.48,14.89,21.25,14.66,20.96,14.66z"/>
		<path class="st104" d="M10.17,14.66H8.96c-0.29,0-0.52,0.23-0.52,0.52c0,0.29,0.23,0.52,0.52,0.52h1.21
			c0.29,0,0.52-0.23,0.52-0.52C10.69,14.89,10.45,14.66,10.17,14.66z"/>
	</g>
	<g>
		<path class="st101" d="M13.94,15.7h-1.33c-0.29,0-0.52-0.23-0.52-0.52s0.23-0.52,0.52-0.52h1.33c0.29,0,0.52,0.23,0.52,0.52
			S14.22,15.7,13.94,15.7z"/>
	</g>
	<g>
		<path class="st101" d="M14.96,14.68c-0.29,0-0.52-0.23-0.52-0.52v-2.11c0-0.29,0.23-0.52,0.52-0.52c0.29,0,0.52,0.23,0.52,0.52
			v2.11C15.48,14.45,15.24,14.68,14.96,14.68z"/>
	</g>
	<path class="st100" d="M14.96,14.16c-0.56,0-1.02,0.46-1.02,1.02c0,0.56,0.46,1.02,1.02,1.02c0.56,0,1.02-0.46,1.02-1.02
		C15.98,14.62,15.52,14.16,14.96,14.16z"/>
</g>
</svg>
