<?xml version="1.0" encoding="utf-8"?>
<!-- Generator: Adobe Illustrator 24.3.0, SVG Export Plug-In . SVG Version: 6.00 Build 0)  -->
<svg version="1.1" id="图层_1" xmlns="http://www.w3.org/2000/svg" xmlns:xlink="http://www.w3.org/1999/xlink" x="0px" y="0px"
	 viewBox="0 0 30 30" style="enable-background:new 0 0 30 30;" xml:space="preserve">
<style type="text/css">
	.st0{fill:#FFFFFF;}
	.st1{opacity:0.9943;fill:#FEFEFE;}
	.st2{opacity:0.9886;fill:#FDFDFD;}
	.st3{opacity:0.983;fill:#FCFCFC;}
	.st4{opacity:0.9773;fill:#FBFBFB;}
	.st5{opacity:0.9716;fill:#FAFAFA;}
	.st6{opacity:0.9659;fill:#F9F9F9;}
	.st7{opacity:0.9602;fill:#F8F8F8;}
	.st8{opacity:0.9545;fill:#F7F7F7;}
	.st9{opacity:0.9489;fill:#F6F6F6;}
	.st10{opacity:0.9432;fill:#F5F5F5;}
	.st11{opacity:0.9375;fill:#F4F4F4;}
	.st12{opacity:0.9318;fill:#F3F3F3;}
	.st13{opacity:0.9261;fill:#F2F2F2;}
	.st14{opacity:0.9205;fill:#F1F1F1;}
	.st15{opacity:0.9148;fill:#F0F0F0;}
	.st16{opacity:0.9091;fill:#EFEFEF;}
	.st17{opacity:0.9034;fill:#EEEEEE;}
	.st18{opacity:0.8977;fill:#EDEDED;}
	.st19{opacity:0.892;fill:#ECECEC;}
	.st20{opacity:0.8864;fill:#EBEBEB;}
	.st21{opacity:0.8807;fill:#EAEAEA;}
	.st22{opacity:0.875;fill:#E9E9E9;}
	.st23{opacity:0.8693;fill:#E8E8E8;}
	.st24{opacity:0.8636;fill:#E7E7E7;}
	.st25{opacity:0.858;fill:#E6E6E6;}
	.st26{opacity:0.8523;fill:#E5E5E5;}
	.st27{opacity:0.8466;fill:#E4E4E4;}
	.st28{opacity:0.8409;fill:#E3E3E3;}
	.st29{opacity:0.8352;fill:#E2E2E2;}
	.st30{opacity:0.8295;fill:#E1E1E1;}
	.st31{opacity:0.8239;fill:#E0E0E0;}
	.st32{opacity:0.8182;fill:#DFDFDF;}
	.st33{opacity:0.8125;fill:#DEDEDE;}
	.st34{opacity:0.8068;fill:#DDDDDD;}
	.st35{opacity:0.8011;fill:#DCDCDC;}
	.st36{opacity:0.7955;fill:#DBDBDB;}
	.st37{opacity:0.7898;fill:#DADADA;}
	.st38{opacity:0.7841;fill:#D9D9D9;}
	.st39{opacity:0.7784;fill:#D8D8D8;}
	.st40{opacity:0.7727;fill:#D7D7D7;}
	.st41{opacity:0.767;fill:#D6D6D6;}
	.st42{opacity:0.7614;fill:#D5D5D5;}
	.st43{opacity:0.7557;fill:#D4D4D4;}
	.st44{opacity:0.75;fill:#D3D3D3;}
	.st45{opacity:0.7443;fill:#D3D3D3;}
	.st46{opacity:0.7386;fill:#D2D2D2;}
	.st47{opacity:0.733;fill:#D1D1D1;}
	.st48{opacity:0.7273;fill:#D0D0D0;}
	.st49{opacity:0.7216;fill:#CFCFCF;}
	.st50{opacity:0.7159;fill:#CECECE;}
	.st51{opacity:0.7102;fill:#CDCDCD;}
	.st52{opacity:0.7045;fill:#CCCCCC;}
	.st53{opacity:0.6989;fill:#CBCBCB;}
	.st54{opacity:0.6932;fill:#CACACA;}
	.st55{opacity:0.6875;fill:#C9C9C9;}
	.st56{opacity:0.6818;fill:#C8C8C8;}
	.st57{opacity:0.6761;fill:#C7C7C7;}
	.st58{opacity:0.6705;fill:#C6C6C6;}
	.st59{opacity:0.6648;fill:#C5C5C5;}
	.st60{opacity:0.6591;fill:#C4C4C4;}
	.st61{opacity:0.6534;fill:#C3C3C3;}
	.st62{opacity:0.6477;fill:#C2C2C2;}
	.st63{opacity:0.642;fill:#C1C1C1;}
	.st64{opacity:0.6364;fill:#C0C0C0;}
	.st65{opacity:0.6307;fill:#BFBFBF;}
	.st66{opacity:0.625;fill:#BEBEBE;}
	.st67{opacity:0.6193;fill:#BDBDBD;}
	.st68{opacity:0.6136;fill:#BCBCBC;}
	.st69{opacity:0.608;fill:#BBBBBB;}
	.st70{opacity:0.6023;fill:#BABABA;}
	.st71{opacity:0.5966;fill:#B9B9B9;}
	.st72{opacity:0.5909;fill:#B8B8B8;}
	.st73{opacity:0.5852;fill:#B7B7B7;}
	.st74{opacity:0.5795;fill:#B6B6B6;}
	.st75{opacity:0.5739;fill:#B5B5B5;}
	.st76{opacity:0.5682;fill:#B4B4B4;}
	.st77{opacity:0.5625;fill:#B3B3B3;}
	.st78{opacity:0.5568;fill:#B2B2B2;}
	.st79{opacity:0.5511;fill:#B1B1B1;}
	.st80{opacity:0.5455;fill:#B0B0B0;}
	.st81{opacity:0.5398;fill:#AFAFAF;}
	.st82{opacity:0.5341;fill:#AEAEAE;}
	.st83{opacity:0.5284;fill:#ADADAD;}
	.st84{opacity:0.5227;fill:#ACACAC;}
	.st85{opacity:0.517;fill:#ABABAB;}
	.st86{opacity:0.5114;fill:#AAAAAA;}
	.st87{opacity:0.5057;fill:#A9A9A9;}
	.st88{opacity:0.5;fill:#A8A8A8;}
	.st89{fill:url(#SVGID_1_);}
	.st90{fill:url(#SVGID_2_);}
	.st91{fill:#F2F5F9;}
	.st92{fill:url(#SVGID_3_);}
	.st93{fill:url(#SVGID_4_);}
	.st94{fill:#F74343;}
	.st95{fill:#DB3131;}
	.st96{fill:url(#SVGID_5_);}
	.st97{fill:#2D2D2D;}
	.st98{opacity:0.5;}
	.st99{fill:#636363;}
	.st100{fill:#B8B5B3;}
	.st101{fill:#F9BF2E;}
	.st102{fill:#EB6D4F;}
	.st103{fill:#F8F8F8;}
	.st104{fill:#29485F;}
</style>
<g>
	<g>
		<path class="st0" d="M24.81,27.69H8.88c-1.49,0-2.7-1.21-2.7-2.7V9.06c0-1.49,1.21-2.7,2.7-2.7h15.93c1.49,0,2.7,1.21,2.7,2.7
			v15.93C27.51,26.48,26.3,27.69,24.81,27.69z"/>
		<path class="st1" d="M24.77,27.65H8.84c-1.49,0-2.7-1.21-2.7-2.7V9.02c0-1.49,1.21-2.7,2.7-2.7h15.93c1.49,0,2.7,1.21,2.7,2.7
			v15.93C27.47,26.44,26.26,27.65,24.77,27.65z"/>
		<path class="st2" d="M24.74,27.62H8.81c-1.49,0-2.7-1.21-2.7-2.7V8.99c0-1.49,1.21-2.7,2.7-2.7h15.93c1.49,0,2.7,1.21,2.7,2.7
			v15.93C27.44,26.41,26.23,27.62,24.74,27.62z"/>
		<path class="st3" d="M24.7,27.58H8.77c-1.49,0-2.7-1.21-2.7-2.7V8.96c0-1.49,1.21-2.7,2.7-2.7H24.7c1.49,0,2.7,1.21,2.7,2.7v15.93
			C27.4,26.38,26.19,27.58,24.7,27.58z"/>
		<path class="st4" d="M24.67,27.55H8.74c-1.49,0-2.7-1.21-2.7-2.7V8.92c0-1.49,1.21-2.7,2.7-2.7h15.93c1.49,0,2.7,1.21,2.7,2.7
			v15.93C27.37,26.34,26.16,27.55,24.67,27.55z"/>
		<path class="st5" d="M24.63,27.52H8.7c-1.49,0-2.7-1.21-2.7-2.7V8.89c0-1.49,1.21-2.7,2.7-2.7h15.93c1.49,0,2.7,1.21,2.7,2.7
			v15.93C27.33,26.31,26.12,27.52,24.63,27.52z"/>
		<path class="st6" d="M24.6,27.48H8.67c-1.49,0-2.7-1.21-2.7-2.7V8.85c0-1.49,1.21-2.7,2.7-2.7H24.6c1.49,0,2.7,1.21,2.7,2.7v15.93
			C27.3,26.27,26.09,27.48,24.6,27.48z"/>
		<path class="st7" d="M24.56,27.45H8.63c-1.49,0-2.7-1.21-2.7-2.7V8.82c0-1.49,1.21-2.7,2.7-2.7h15.93c1.49,0,2.7,1.21,2.7,2.7
			v15.93C27.26,26.24,26.05,27.45,24.56,27.45z"/>
		<path class="st8" d="M24.53,27.41H8.6c-1.49,0-2.7-1.21-2.7-2.7V8.78c0-1.49,1.21-2.7,2.7-2.7h15.93c1.49,0,2.7,1.21,2.7,2.7
			v15.93C27.23,26.2,26.02,27.41,24.53,27.41z"/>
		<path class="st9" d="M24.49,27.38H8.57c-1.49,0-2.7-1.21-2.7-2.7V8.75c0-1.49,1.21-2.7,2.7-2.7h15.93c1.49,0,2.7,1.21,2.7,2.7
			v15.93C27.19,26.17,25.99,27.38,24.49,27.38z"/>
		<path class="st10" d="M24.46,27.34H8.53c-1.49,0-2.7-1.21-2.7-2.7V8.71c0-1.49,1.21-2.7,2.7-2.7h15.93c1.49,0,2.7,1.21,2.7,2.7
			v15.93C27.16,26.13,25.95,27.34,24.46,27.34z"/>
		<path class="st11" d="M24.42,27.31H8.5c-1.49,0-2.7-1.21-2.7-2.7V8.68c0-1.49,1.21-2.7,2.7-2.7h15.93c1.49,0,2.7,1.21,2.7,2.7
			v15.93C27.12,26.1,25.92,27.31,24.42,27.31z"/>
		<path class="st12" d="M24.39,27.27H8.46c-1.49,0-2.7-1.21-2.7-2.7V8.64c0-1.49,1.21-2.7,2.7-2.7h15.93c1.49,0,2.7,1.21,2.7,2.7
			v15.93C27.09,26.06,25.88,27.27,24.39,27.27z"/>
		<path class="st13" d="M24.35,27.24H8.43c-1.49,0-2.7-1.21-2.7-2.7V8.61c0-1.49,1.21-2.7,2.7-2.7h15.93c1.49,0,2.7,1.21,2.7,2.7
			v15.93C27.06,26.03,25.85,27.24,24.35,27.24z"/>
		<path class="st14" d="M24.32,27.2H8.39c-1.49,0-2.7-1.21-2.7-2.7V8.57c0-1.49,1.21-2.7,2.7-2.7h15.93c1.49,0,2.7,1.21,2.7,2.7
			V24.5C27.02,25.99,25.81,27.2,24.32,27.2z"/>
		<path class="st15" d="M24.29,27.17H8.36c-1.49,0-2.7-1.21-2.7-2.7V8.54c0-1.49,1.21-2.7,2.7-2.7h15.93c1.49,0,2.7,1.21,2.7,2.7
			v15.93C26.99,25.96,25.78,27.17,24.29,27.17z"/>
		<path class="st16" d="M24.25,27.13H8.32c-1.49,0-2.7-1.21-2.7-2.7V8.5c0-1.49,1.21-2.7,2.7-2.7h15.93c1.49,0,2.7,1.21,2.7,2.7
			v15.93C26.95,25.92,25.74,27.13,24.25,27.13z"/>
		<path class="st17" d="M24.22,27.1H8.29c-1.49,0-2.7-1.21-2.7-2.7V8.47c0-1.49,1.21-2.7,2.7-2.7h15.93c1.49,0,2.7,1.21,2.7,2.7
			V24.4C26.92,25.89,25.71,27.1,24.22,27.1z"/>
		<path class="st18" d="M24.18,27.06H8.25c-1.49,0-2.7-1.21-2.7-2.7V8.43c0-1.49,1.21-2.7,2.7-2.7h15.93c1.49,0,2.7,1.21,2.7,2.7
			v15.93C26.88,25.86,25.67,27.06,24.18,27.06z"/>
		<path class="st19" d="M24.15,27.03H8.22c-1.49,0-2.7-1.21-2.7-2.7V8.4c0-1.49,1.21-2.7,2.7-2.7h15.93c1.49,0,2.7,1.21,2.7,2.7
			v15.93C26.85,25.82,25.64,27.03,24.15,27.03z"/>
		<path class="st20" d="M24.11,26.99H8.18c-1.49,0-2.7-1.21-2.7-2.7V8.37c0-1.49,1.21-2.7,2.7-2.7h15.93c1.49,0,2.7,1.21,2.7,2.7
			v15.93C26.81,25.79,25.6,26.99,24.11,26.99z"/>
		<path class="st21" d="M24.08,26.96H8.15c-1.49,0-2.7-1.21-2.7-2.7V8.33c0-1.49,1.21-2.7,2.7-2.7h15.93c1.49,0,2.7,1.21,2.7,2.7
			v15.93C26.78,25.75,25.57,26.96,24.08,26.96z"/>
		<path class="st22" d="M24.04,26.93H8.11c-1.49,0-2.7-1.21-2.7-2.7V8.3c0-1.49,1.21-2.7,2.7-2.7h15.93c1.49,0,2.7,1.21,2.7,2.7
			v15.93C26.74,25.72,25.53,26.93,24.04,26.93z"/>
		<path class="st23" d="M24.01,26.89H8.08c-1.49,0-2.7-1.21-2.7-2.7V8.26c0-1.49,1.21-2.7,2.7-2.7h15.93c1.49,0,2.7,1.21,2.7,2.7
			v15.93C26.71,25.68,25.5,26.89,24.01,26.89z"/>
		<path class="st24" d="M23.97,26.86H8.04c-1.49,0-2.7-1.21-2.7-2.7V8.23c0-1.49,1.21-2.7,2.7-2.7h15.93c1.49,0,2.7,1.21,2.7,2.7
			v15.93C26.67,25.65,25.46,26.86,23.97,26.86z"/>
		<path class="st25" d="M23.94,26.82H8.01c-1.49,0-2.7-1.21-2.7-2.7V8.19c0-1.49,1.21-2.7,2.7-2.7h15.93c1.49,0,2.7,1.21,2.7,2.7
			v15.93C26.64,25.61,25.43,26.82,23.94,26.82z"/>
		<path class="st26" d="M23.9,26.79H7.98c-1.49,0-2.7-1.21-2.7-2.7V8.16c0-1.49,1.21-2.7,2.7-2.7H23.9c1.49,0,2.7,1.21,2.7,2.7
			v15.93C26.6,25.58,25.4,26.79,23.9,26.79z"/>
		<path class="st27" d="M23.87,26.75H7.94c-1.49,0-2.7-1.21-2.7-2.7V8.12c0-1.49,1.21-2.7,2.7-2.7h15.93c1.49,0,2.7,1.21,2.7,2.7
			v15.93C26.57,25.54,25.36,26.75,23.87,26.75z"/>
		<path class="st28" d="M23.83,26.72H7.91c-1.49,0-2.7-1.21-2.7-2.7V8.09c0-1.49,1.21-2.7,2.7-2.7h15.93c1.49,0,2.7,1.21,2.7,2.7
			v15.93C26.54,25.51,25.33,26.72,23.83,26.72z"/>
		<path class="st29" d="M23.8,26.68H7.87c-1.49,0-2.7-1.21-2.7-2.7V8.05c0-1.49,1.21-2.7,2.7-2.7H23.8c1.49,0,2.7,1.21,2.7,2.7
			v15.93C26.5,25.47,25.29,26.68,23.8,26.68z"/>
		<path class="st30" d="M23.77,26.65H7.84c-1.49,0-2.7-1.21-2.7-2.7V8.02c0-1.49,1.21-2.7,2.7-2.7h15.93c1.49,0,2.7,1.21,2.7,2.7
			v15.93C26.47,25.44,25.26,26.65,23.77,26.65z"/>
		<path class="st31" d="M23.73,26.61H7.8c-1.49,0-2.7-1.21-2.7-2.7V7.98c0-1.49,1.21-2.7,2.7-2.7h15.93c1.49,0,2.7,1.21,2.7,2.7
			v15.93C26.43,25.4,25.22,26.61,23.73,26.61z"/>
		<path class="st32" d="M23.7,26.58H7.77c-1.49,0-2.7-1.21-2.7-2.7V7.95c0-1.49,1.21-2.7,2.7-2.7H23.7c1.49,0,2.7,1.21,2.7,2.7
			v15.93C26.4,25.37,25.19,26.58,23.7,26.58z"/>
		<path class="st33" d="M23.66,26.54H7.73c-1.49,0-2.7-1.21-2.7-2.7V7.91c0-1.49,1.21-2.7,2.7-2.7h15.93c1.49,0,2.7,1.21,2.7,2.7
			v15.93C26.36,25.33,25.15,26.54,23.66,26.54z"/>
		<path class="st34" d="M23.63,26.51H7.7c-1.49,0-2.7-1.21-2.7-2.7V7.88c0-1.49,1.21-2.7,2.7-2.7h15.93c1.49,0,2.7,1.21,2.7,2.7
			v15.93C26.33,25.3,25.12,26.51,23.63,26.51z"/>
		<path class="st35" d="M23.59,26.47H7.66c-1.49,0-2.7-1.21-2.7-2.7V7.85c0-1.49,1.21-2.7,2.7-2.7h15.93c1.49,0,2.7,1.21,2.7,2.7
			v15.93C26.29,25.27,25.08,26.47,23.59,26.47z"/>
		<path class="st36" d="M23.56,26.44H7.63c-1.49,0-2.7-1.21-2.7-2.7V7.81c0-1.49,1.21-2.7,2.7-2.7h15.93c1.49,0,2.7,1.21,2.7,2.7
			v15.93C26.26,25.23,25.05,26.44,23.56,26.44z"/>
		<path class="st37" d="M23.52,26.41H7.59c-1.49,0-2.7-1.21-2.7-2.7V7.78c0-1.49,1.21-2.7,2.7-2.7h15.93c1.49,0,2.7,1.21,2.7,2.7
			V23.7C26.22,25.2,25.01,26.41,23.52,26.41z"/>
		<path class="st38" d="M23.49,26.37H7.56c-1.49,0-2.7-1.21-2.7-2.7V7.74c0-1.49,1.21-2.7,2.7-2.7h15.93c1.49,0,2.7,1.21,2.7,2.7
			v15.93C26.19,25.16,24.98,26.37,23.49,26.37z"/>
		<path class="st39" d="M23.45,26.34H7.52c-1.49,0-2.7-1.21-2.7-2.7V7.71c0-1.49,1.21-2.7,2.7-2.7h15.93c1.49,0,2.7,1.21,2.7,2.7
			v15.93C26.15,25.13,24.94,26.34,23.45,26.34z"/>
		<path class="st40" d="M23.42,26.3H7.49c-1.49,0-2.7-1.21-2.7-2.7V7.67c0-1.49,1.21-2.7,2.7-2.7h15.93c1.49,0,2.7,1.21,2.7,2.7
			V23.6C26.12,25.09,24.91,26.3,23.42,26.3z"/>
		<path class="st41" d="M23.38,26.27H7.45c-1.49,0-2.7-1.21-2.7-2.7V7.64c0-1.49,1.21-2.7,2.7-2.7h15.93c1.49,0,2.7,1.21,2.7,2.7
			v15.93C26.08,25.06,24.88,26.27,23.38,26.27z"/>
		<path class="st42" d="M23.35,26.23H7.42c-1.49,0-2.7-1.21-2.7-2.7V7.6c0-1.49,1.21-2.7,2.7-2.7h15.93c1.49,0,2.7,1.21,2.7,2.7
			v15.93C26.05,25.02,24.84,26.23,23.35,26.23z"/>
		<path class="st43" d="M23.31,26.2H7.39c-1.49,0-2.7-1.21-2.7-2.7V7.57c0-1.49,1.21-2.7,2.7-2.7h15.93c1.49,0,2.7,1.21,2.7,2.7
			V23.5C26.01,24.99,24.81,26.2,23.31,26.2z"/>
		<path class="st44" d="M23.28,26.16H7.35c-1.49,0-2.7-1.21-2.7-2.7V7.53c0-1.49,1.21-2.7,2.7-2.7h15.93c1.49,0,2.7,1.21,2.7,2.7
			v15.93C25.98,24.95,24.77,26.16,23.28,26.16z"/>
		<path class="st45" d="M23.24,26.13H7.32c-1.49,0-2.7-1.21-2.7-2.7V7.5c0-1.49,1.21-2.7,2.7-2.7h15.93c1.49,0,2.7,1.21,2.7,2.7
			v15.93C25.95,24.92,24.74,26.13,23.24,26.13z"/>
		<path class="st46" d="M23.21,26.09H7.28c-1.49,0-2.7-1.21-2.7-2.7V7.46c0-1.49,1.21-2.7,2.7-2.7h15.93c1.49,0,2.7,1.21,2.7,2.7
			v15.93C25.91,24.88,24.7,26.09,23.21,26.09z"/>
		<path class="st47" d="M23.18,26.06H7.25c-1.49,0-2.7-1.21-2.7-2.7V7.43c0-1.49,1.21-2.7,2.7-2.7h15.93c1.49,0,2.7,1.21,2.7,2.7
			v15.93C25.88,24.85,24.67,26.06,23.18,26.06z"/>
		<path class="st48" d="M23.14,26.02H7.21c-1.49,0-2.7-1.21-2.7-2.7V7.39c0-1.49,1.21-2.7,2.7-2.7h15.93c1.49,0,2.7,1.21,2.7,2.7
			v15.93C25.84,24.81,24.63,26.02,23.14,26.02z"/>
		<path class="st49" d="M23.11,25.99H7.18c-1.49,0-2.7-1.21-2.7-2.7V7.36c0-1.49,1.21-2.7,2.7-2.7h15.93c1.49,0,2.7,1.21,2.7,2.7
			v15.93C25.81,24.78,24.6,25.99,23.11,25.99z"/>
		<path class="st50" d="M23.07,25.95H7.14c-1.49,0-2.7-1.21-2.7-2.7V7.32c0-1.49,1.21-2.7,2.7-2.7h15.93c1.49,0,2.7,1.21,2.7,2.7
			v15.93C25.77,24.74,24.56,25.95,23.07,25.95z"/>
		<path class="st51" d="M23.04,25.92H7.11c-1.49,0-2.7-1.21-2.7-2.7V7.29c0-1.49,1.21-2.7,2.7-2.7h15.93c1.49,0,2.7,1.21,2.7,2.7
			v15.93C25.74,24.71,24.53,25.92,23.04,25.92z"/>
		<path class="st52" d="M23,25.88H7.07c-1.49,0-2.7-1.21-2.7-2.7V7.26c0-1.49,1.21-2.7,2.7-2.7H23c1.49,0,2.7,1.21,2.7,2.7v15.93
			C25.7,24.68,24.49,25.88,23,25.88z"/>
		<path class="st53" d="M22.97,25.85H7.04c-1.49,0-2.7-1.21-2.7-2.7V7.22c0-1.49,1.21-2.7,2.7-2.7h15.93c1.49,0,2.7,1.21,2.7,2.7
			v15.93C25.67,24.64,24.46,25.85,22.97,25.85z"/>
		<path class="st54" d="M22.93,25.82H7c-1.49,0-2.7-1.21-2.7-2.7V7.19c0-1.49,1.21-2.7,2.7-2.7h15.93c1.49,0,2.7,1.21,2.7,2.7v15.93
			C25.63,24.61,24.42,25.82,22.93,25.82z"/>
		<path class="st55" d="M22.9,25.78H6.97c-1.49,0-2.7-1.21-2.7-2.7V7.15c0-1.49,1.21-2.7,2.7-2.7H22.9c1.49,0,2.7,1.21,2.7,2.7
			v15.93C25.6,24.57,24.39,25.78,22.9,25.78z"/>
		<path class="st56" d="M22.86,25.75H6.93c-1.49,0-2.7-1.21-2.7-2.7V7.12c0-1.49,1.21-2.7,2.7-2.7h15.93c1.49,0,2.7,1.21,2.7,2.7
			v15.93C25.56,24.54,24.35,25.75,22.86,25.75z"/>
		<path class="st57" d="M22.83,25.71H6.9c-1.49,0-2.7-1.21-2.7-2.7V7.08c0-1.49,1.21-2.7,2.7-2.7h15.93c1.49,0,2.7,1.21,2.7,2.7
			v15.93C25.53,24.5,24.32,25.71,22.83,25.71z"/>
		<path class="st58" d="M22.79,25.68H6.87c-1.49,0-2.7-1.21-2.7-2.7V7.05c0-1.49,1.21-2.7,2.7-2.7h15.93c1.49,0,2.7,1.21,2.7,2.7
			v15.93C25.49,24.47,24.29,25.68,22.79,25.68z"/>
		<path class="st59" d="M22.76,25.64H6.83c-1.49,0-2.7-1.21-2.7-2.7V7.01c0-1.49,1.21-2.7,2.7-2.7h15.93c1.49,0,2.7,1.21,2.7,2.7
			v15.93C25.46,24.43,24.25,25.64,22.76,25.64z"/>
		<path class="st60" d="M22.72,25.61H6.8c-1.49,0-2.7-1.21-2.7-2.7V6.98c0-1.49,1.21-2.7,2.7-2.7h15.93c1.49,0,2.7,1.21,2.7,2.7
			v15.93C25.43,24.4,24.22,25.61,22.72,25.61z"/>
		<path class="st61" d="M22.69,25.57H6.76c-1.49,0-2.7-1.21-2.7-2.7V6.94c0-1.49,1.21-2.7,2.7-2.7h15.93c1.49,0,2.7,1.21,2.7,2.7
			v15.93C25.39,24.36,24.18,25.57,22.69,25.57z"/>
		<path class="st62" d="M22.65,25.54H6.73c-1.49,0-2.7-1.21-2.7-2.7V6.91c0-1.49,1.21-2.7,2.7-2.7h15.93c1.49,0,2.7,1.21,2.7,2.7
			v15.93C25.36,24.33,24.15,25.54,22.65,25.54z"/>
		<path class="st63" d="M22.62,25.5H6.69c-1.49,0-2.7-1.21-2.7-2.7V6.87c0-1.49,1.21-2.7,2.7-2.7h15.93c1.49,0,2.7,1.21,2.7,2.7
			V22.8C25.32,24.29,24.11,25.5,22.62,25.5z"/>
		<path class="st64" d="M22.59,25.47H6.66c-1.49,0-2.7-1.21-2.7-2.7V6.84c0-1.49,1.21-2.7,2.7-2.7h15.93c1.49,0,2.7,1.21,2.7,2.7
			v15.93C25.29,24.26,24.08,25.47,22.59,25.47z"/>
		<path class="st65" d="M22.55,25.43H6.62c-1.49,0-2.7-1.21-2.7-2.7V6.8c0-1.49,1.21-2.7,2.7-2.7h15.93c1.49,0,2.7,1.21,2.7,2.7
			v15.93C25.25,24.22,24.04,25.43,22.55,25.43z"/>
		<path class="st66" d="M22.52,25.4H6.59c-1.49,0-2.7-1.21-2.7-2.7V6.77c0-1.49,1.21-2.7,2.7-2.7h15.93c1.49,0,2.7,1.21,2.7,2.7
			V22.7C25.22,24.19,24.01,25.4,22.52,25.4z"/>
		<path class="st67" d="M22.48,25.36H6.55c-1.49,0-2.7-1.21-2.7-2.7V6.74c0-1.49,1.21-2.7,2.7-2.7h15.93c1.49,0,2.7,1.21,2.7,2.7
			v15.93C25.18,24.16,23.97,25.36,22.48,25.36z"/>
		<path class="st68" d="M22.45,25.33H6.52c-1.49,0-2.7-1.21-2.7-2.7V6.7c0-1.49,1.21-2.7,2.7-2.7h15.93c1.49,0,2.7,1.21,2.7,2.7
			v15.93C25.15,24.12,23.94,25.33,22.45,25.33z"/>
		<path class="st69" d="M22.41,25.29H6.48c-1.49,0-2.7-1.21-2.7-2.7V6.67c0-1.49,1.21-2.7,2.7-2.7h15.93c1.49,0,2.7,1.21,2.7,2.7
			v15.93C25.11,24.09,23.9,25.29,22.41,25.29z"/>
		<path class="st70" d="M22.38,25.26H6.45c-1.49,0-2.7-1.21-2.7-2.7V6.63c0-1.49,1.21-2.7,2.7-2.7h15.93c1.49,0,2.7,1.21,2.7,2.7
			v15.93C25.08,24.05,23.87,25.26,22.38,25.26z"/>
		<path class="st71" d="M22.34,25.23H6.41c-1.49,0-2.7-1.21-2.7-2.7V6.6c0-1.49,1.21-2.7,2.7-2.7h15.93c1.49,0,2.7,1.21,2.7,2.7
			v15.93C25.04,24.02,23.83,25.23,22.34,25.23z"/>
		<path class="st72" d="M22.31,25.19H6.38c-1.49,0-2.7-1.21-2.7-2.7V6.56c0-1.49,1.21-2.7,2.7-2.7h15.93c1.49,0,2.7,1.21,2.7,2.7
			v15.93C25.01,23.98,23.8,25.19,22.31,25.19z"/>
		<path class="st73" d="M22.27,25.16H6.34c-1.49,0-2.7-1.21-2.7-2.7V6.53c0-1.49,1.21-2.7,2.7-2.7h15.93c1.49,0,2.7,1.21,2.7,2.7
			v15.93C24.97,23.95,23.76,25.16,22.27,25.16z"/>
		<path class="st74" d="M22.24,25.12H6.31c-1.49,0-2.7-1.21-2.7-2.7V6.49c0-1.49,1.21-2.7,2.7-2.7h15.93c1.49,0,2.7,1.21,2.7,2.7
			v15.93C24.94,23.91,23.73,25.12,22.24,25.12z"/>
		<path class="st75" d="M22.2,25.09H6.28c-1.49,0-2.7-1.21-2.7-2.7V6.46c0-1.49,1.21-2.7,2.7-2.7H22.2c1.49,0,2.7,1.21,2.7,2.7
			v15.93C24.9,23.88,23.7,25.09,22.2,25.09z"/>
		<path class="st76" d="M22.17,25.05H6.24c-1.49,0-2.7-1.21-2.7-2.7V6.42c0-1.49,1.21-2.7,2.7-2.7h15.93c1.49,0,2.7,1.21,2.7,2.7
			v15.93C24.87,23.84,23.66,25.05,22.17,25.05z"/>
		<path class="st77" d="M22.13,25.02H6.21c-1.49,0-2.7-1.21-2.7-2.7V6.39c0-1.49,1.21-2.7,2.7-2.7h15.93c1.49,0,2.7,1.21,2.7,2.7
			v15.93C24.84,23.81,23.63,25.02,22.13,25.02z"/>
		<path class="st78" d="M22.1,24.98H6.17c-1.49,0-2.7-1.21-2.7-2.7V6.35c0-1.49,1.21-2.7,2.7-2.7H22.1c1.49,0,2.7,1.21,2.7,2.7
			v15.93C24.8,23.77,23.59,24.98,22.1,24.98z"/>
		<path class="st79" d="M22.07,24.95H6.14c-1.49,0-2.7-1.21-2.7-2.7V6.32c0-1.49,1.21-2.7,2.7-2.7h15.93c1.49,0,2.7,1.21,2.7,2.7
			v15.93C24.77,23.74,23.56,24.95,22.07,24.95z"/>
		<path class="st80" d="M22.03,24.91H6.1c-1.49,0-2.7-1.21-2.7-2.7V6.28c0-1.49,1.21-2.7,2.7-2.7h15.93c1.49,0,2.7,1.21,2.7,2.7
			v15.93C24.73,23.7,23.52,24.91,22.03,24.91z"/>
		<path class="st81" d="M22,24.88H6.07c-1.49,0-2.7-1.21-2.7-2.7V6.25c0-1.49,1.21-2.7,2.7-2.7H22c1.49,0,2.7,1.21,2.7,2.7v15.93
			C24.7,23.67,23.49,24.88,22,24.88z"/>
		<path class="st82" d="M21.96,24.84H6.03c-1.49,0-2.7-1.21-2.7-2.7V6.21c0-1.49,1.21-2.7,2.7-2.7h15.93c1.49,0,2.7,1.21,2.7,2.7
			v15.93C24.66,23.63,23.45,24.84,21.96,24.84z"/>
		<path class="st83" d="M21.93,24.81H6c-1.49,0-2.7-1.21-2.7-2.7V6.18c0-1.49,1.21-2.7,2.7-2.7h15.93c1.49,0,2.7,1.21,2.7,2.7v15.93
			C24.63,23.6,23.42,24.81,21.93,24.81z"/>
		<path class="st84" d="M21.89,24.77H5.96c-1.49,0-2.7-1.21-2.7-2.7V6.15c0-1.49,1.21-2.7,2.7-2.7h15.93c1.49,0,2.7,1.21,2.7,2.7
			v15.93C24.59,23.57,23.38,24.77,21.89,24.77z"/>
		<path class="st85" d="M21.86,24.74H5.93c-1.49,0-2.7-1.21-2.7-2.7V6.11c0-1.49,1.21-2.7,2.7-2.7h15.93c1.49,0,2.7,1.21,2.7,2.7
			v15.93C24.56,23.53,23.35,24.74,21.86,24.74z"/>
		<path class="st86" d="M21.82,24.71H5.89c-1.49,0-2.7-1.21-2.7-2.7V6.08c0-1.49,1.21-2.7,2.7-2.7h15.93c1.49,0,2.7,1.21,2.7,2.7V22
			C24.52,23.5,23.31,24.71,21.82,24.71z"/>
		<path class="st87" d="M21.79,24.67H5.86c-1.49,0-2.7-1.21-2.7-2.7V6.04c0-1.49,1.21-2.7,2.7-2.7h15.93c1.49,0,2.7,1.21,2.7,2.7
			v15.93C24.49,23.46,23.28,24.67,21.79,24.67z"/>
		<path class="st88" d="M21.75,24.64H5.82c-1.49,0-2.7-1.21-2.7-2.7V6.01c0-1.49,1.21-2.7,2.7-2.7h15.93c1.49,0,2.7,1.21,2.7,2.7
			v15.93C24.45,23.43,23.24,24.64,21.75,24.64z"/>
	</g>
	<linearGradient id="SVGID_1_" gradientUnits="userSpaceOnUse" x1="13.9029" y1="11.7725" x2="13.0568" y2="31.8449">
		<stop  offset="0.618" style="stop-color:#C6CACC"/>
		<stop  offset="0.6845" style="stop-color:#B7BBBD"/>
		<stop  offset="0.8047" style="stop-color:#939598"/>
	</linearGradient>
	<path class="st89" d="M21.75,3.82H5.82c-1.49,0-2.7,1.21-2.7,2.7v15.93c0,1.49,1.21,2.7,2.7,2.7h15.93c1.49,0,2.7-1.21,2.7-2.7
		V6.52C24.45,5.03,23.24,3.82,21.75,3.82z"/>
	<linearGradient id="SVGID_2_" gradientUnits="userSpaceOnUse" x1="25.4783" y1="27.4588" x2="19.3673" y2="20.4076">
		<stop  offset="0.431" style="stop-color:#C6CACC"/>
		<stop  offset="0.5696" style="stop-color:#C4C7C9"/>
		<stop  offset="0.6545" style="stop-color:#BBBFC1"/>
		<stop  offset="0.725" style="stop-color:#ADB1B3"/>
		<stop  offset="0.7872" style="stop-color:#9A9C9F"/>
		<stop  offset="0.8047" style="stop-color:#939598"/>
	</linearGradient>
	<path class="st90" d="M21.75,3.31H5.82c-1.49,0-2.7,1.21-2.7,2.7v15.93c0,1.49,1.21,2.7,2.7,2.7h15.93c1.49,0,2.7-1.21,2.7-2.7
		V6.01C24.45,4.51,23.24,3.31,21.75,3.31z"/>
	<path class="st91" d="M21.75,3.31H5.82c-1.49,0-2.7,1.21-2.7,2.7v15.93c0,1.49,1.21,2.7,2.7,2.7H19.3l5.15-5.4V6.01
		C24.45,4.51,23.24,3.31,21.75,3.31z"/>
	<linearGradient id="SVGID_3_" gradientUnits="userSpaceOnUse" x1="6.2248" y1="22.5928" x2="26.2503" y2="28.6412">
		<stop  offset="0" style="stop-color:#FFFFFF"/>
		<stop  offset="0.077" style="stop-color:#F9F9F9"/>
		<stop  offset="0.4027" style="stop-color:#E3E3E4"/>
		<stop  offset="0.7158" style="stop-color:#D5D6D7"/>
		<stop  offset="1" style="stop-color:#D1D2D3"/>
	</linearGradient>
	<path class="st92" d="M19.39,24.36c0-0.02,0-0.05,0.01-0.07l-0.09,0.1H5.82c-1.49,0-2.7-1.21-2.7-2.7v0.26c0,1.49,1.21,2.7,2.7,2.7
		H19.3l0.08-0.08C19.38,24.49,19.38,24.42,19.39,24.36z"/>
	<g>
		<linearGradient id="SVGID_4_" gradientUnits="userSpaceOnUse" x1="21.2787" y1="12.3692" x2="29.9282" y2="12.5572">
			<stop  offset="0" style="stop-color:#FFFFFF"/>
			<stop  offset="0.077" style="stop-color:#F9F9F9"/>
			<stop  offset="0.4027" style="stop-color:#E3E3E4"/>
			<stop  offset="0.7158" style="stop-color:#D5D6D7"/>
			<stop  offset="1" style="stop-color:#D1D2D3"/>
		</linearGradient>
		<path class="st93" d="M21.75,3.31H21.5c1.49,0,2.7,1.21,2.7,2.7v13.23l-1.88,2.23l2.13-2.23V6.01
			C24.45,4.51,23.24,3.31,21.75,3.31z"/>
	</g>
	<g>
		<path class="st0" d="M3.26,21.93V6.01c0-1.49,1.21-2.7,2.7-2.7H5.82c-1.49,0-2.7,1.21-2.7,2.7v15.93c0,1.49,1.21,2.7,2.7,2.7h0.14
			C4.47,24.64,3.26,23.43,3.26,21.93z"/>
	</g>
	<g>
		<path class="st94" d="M21.75,3.31H5.82c-1.49,0-2.7,1.21-2.7,2.7v3.16h21.33V6.01C24.45,4.51,23.24,3.31,21.75,3.31z"/>
	</g>
	<g>
		<path class="st95" d="M21.75,3.31h-0.14c1.49,0,2.7,1.21,2.7,2.7v3.16h0.14V6.01C24.45,4.51,23.24,3.31,21.75,3.31z"/>
	</g>
	<g>
		<path class="st94" d="M3.26,6.19c0-1.49,1.21-2.7,2.7-2.7h15.93c0.83,0,1.56,0.37,2.06,0.95c-0.49-0.69-1.29-1.14-2.2-1.14H5.82
			c-1.49,0-2.7,1.21-2.7,2.7v3.16h0.14V6.19z"/>
	</g>
	<g>
		<rect x="3.12" y="9.17" class="st95" width="21.33" height="0.18"/>
	</g>
	<g>
		<linearGradient id="SVGID_5_" gradientUnits="userSpaceOnUse" x1="17.6327" y1="18.5264" x2="25.2793" y2="24.6688">
			<stop  offset="0" style="stop-color:#FFFFFF"/>
			<stop  offset="0.077" style="stop-color:#F9F9F9"/>
			<stop  offset="0.4027" style="stop-color:#E3E3E4"/>
			<stop  offset="0.7158" style="stop-color:#D5D6D7"/>
			<stop  offset="1" style="stop-color:#D1D2D3"/>
		</linearGradient>
		<path class="st96" d="M19.3,24.64v-2.7c0-1.49,1.21-2.7,2.7-2.7h2.45L19.3,24.64z"/>
	</g>
	<g>
		<g>
			<g>
				<circle class="st97" cx="7.04" cy="4.54" r="0.72"/>
			</g>
			<g class="st98">
				<path class="st94" d="M7.04,3.82c0.39,0,0.71,0.31,0.72,0.7c0-0.01,0-0.02,0-0.03c0-0.4-0.32-0.72-0.72-0.72
					S6.32,4.09,6.32,4.49c0,0.01,0,0.02,0,0.03C6.33,4.13,6.65,3.82,7.04,3.82z"/>
			</g>
			<g>
				<path class="st94" d="M7.04,5.26c-0.38,0-0.69-0.3-0.72-0.67c0,0.02,0,0.03,0,0.05c0,0.4,0.32,0.72,0.72,0.72
					s0.72-0.32,0.72-0.72c0-0.02,0-0.03,0-0.05C7.73,4.97,7.42,5.26,7.04,5.26z"/>
			</g>
		</g>
	</g>
	<g>
		<g>
			<g>
				<circle class="st97" cx="10.41" cy="4.54" r="0.72"/>
			</g>
			<g class="st98">
				<path class="st94" d="M10.41,3.82c0.39,0,0.71,0.31,0.72,0.7c0-0.01,0-0.02,0-0.03c0-0.4-0.32-0.72-0.72-0.72
					c-0.4,0-0.72,0.32-0.72,0.72c0,0.01,0,0.02,0,0.03C9.71,4.13,10.02,3.82,10.41,3.82z"/>
			</g>
			<g>
				<path class="st94" d="M10.41,5.26c-0.38,0-0.69-0.3-0.72-0.67c0,0.02,0,0.03,0,0.05c0,0.4,0.32,0.72,0.72,0.72
					c0.4,0,0.72-0.32,0.72-0.72c0-0.02,0-0.03,0-0.05C11.11,4.97,10.8,5.26,10.41,5.26z"/>
			</g>
		</g>
	</g>
	<g>
		<g>
			<g>
				<circle class="st97" cx="13.79" cy="4.54" r="0.72"/>
			</g>
			<g class="st98">
				<path class="st94" d="M13.79,3.82c0.39,0,0.71,0.31,0.72,0.7c0-0.01,0-0.02,0-0.03c0-0.4-0.32-0.72-0.72-0.72
					c-0.4,0-0.72,0.32-0.72,0.72c0,0.01,0,0.02,0,0.03C13.08,4.13,13.4,3.82,13.79,3.82z"/>
			</g>
			<g>
				<path class="st94" d="M13.79,5.26c-0.38,0-0.69-0.3-0.72-0.67c0,0.02,0,0.03,0,0.05c0,0.4,0.32,0.72,0.72,0.72
					c0.4,0,0.72-0.32,0.72-0.72c0-0.02,0-0.03,0-0.05C14.48,4.97,14.17,5.26,13.79,5.26z"/>
			</g>
		</g>
	</g>
	<g>
		<g>
			<g>
				<circle class="st97" cx="17.16" cy="4.54" r="0.72"/>
			</g>
			<g class="st98">
				<path class="st94" d="M17.16,3.82c0.39,0,0.71,0.31,0.72,0.7c0-0.01,0-0.02,0-0.03c0-0.4-0.32-0.72-0.72-0.72
					s-0.72,0.32-0.72,0.72c0,0.01,0,0.02,0,0.03C16.46,4.13,16.77,3.82,17.16,3.82z"/>
			</g>
			<g>
				<path class="st94" d="M17.16,5.26c-0.38,0-0.69-0.3-0.72-0.67c0,0.02,0,0.03,0,0.05c0,0.4,0.32,0.72,0.72,0.72
					s0.72-0.32,0.72-0.72c0-0.02,0-0.03,0-0.05C17.86,4.97,17.55,5.26,17.16,5.26z"/>
			</g>
		</g>
	</g>
	<g>
		<g>
			<g>
				<circle class="st97" cx="20.54" cy="4.54" r="0.72"/>
			</g>
			<g class="st98">
				<path class="st94" d="M20.54,3.82c0.39,0,0.71,0.31,0.72,0.7c0-0.01,0-0.02,0-0.03c0-0.4-0.32-0.72-0.72-0.72
					s-0.72,0.32-0.72,0.72c0,0.01,0,0.02,0,0.03C19.83,4.13,20.15,3.82,20.54,3.82z"/>
			</g>
			<g>
				<path class="st94" d="M20.54,5.26c-0.38,0-0.69-0.3-0.72-0.67c0,0.02,0,0.03,0,0.05c0,0.4,0.32,0.72,0.72,0.72
					s0.72-0.32,0.72-0.72c0-0.02,0-0.03,0-0.05C21.23,4.97,20.92,5.26,20.54,5.26z"/>
			</g>
		</g>
		<g>
			<g>
				<g>
					<path class="st99" d="M7.42,2.04c-0.13,0-0.24,0.11-0.24,0.24V4.3c0,0.13,0.11,0.24,0.24,0.24c0.13,0,0.24-0.11,0.24-0.24V2.28
						C7.66,2.15,7.55,2.04,7.42,2.04z"/>
					<path class="st99" d="M6.68,2.04c-0.13,0-0.24,0.11-0.24,0.24V4.3c0,0.13,0.11,0.24,0.24,0.24S6.92,4.43,6.92,4.3V2.28
						C6.92,2.15,6.81,2.04,6.68,2.04z"/>
					<path class="st99" d="M10.8,2.04c-0.13,0-0.24,0.11-0.24,0.24V4.3c0,0.13,0.11,0.24,0.24,0.24c0.13,0,0.24-0.11,0.24-0.24V2.28
						C11.04,2.15,10.93,2.04,10.8,2.04z"/>
					<path class="st99" d="M10.05,2.04c-0.13,0-0.24,0.11-0.24,0.24V4.3c0,0.13,0.11,0.24,0.24,0.24c0.13,0,0.24-0.11,0.24-0.24
						V2.28C10.29,2.15,10.19,2.04,10.05,2.04z"/>
					<path class="st99" d="M14.17,2.04c-0.13,0-0.24,0.11-0.24,0.24V4.3c0,0.13,0.11,0.24,0.24,0.24c0.13,0,0.24-0.11,0.24-0.24
						V2.28C14.41,2.15,14.3,2.04,14.17,2.04z"/>
					<path class="st99" d="M13.43,2.04c-0.13,0-0.24,0.11-0.24,0.24V4.3c0,0.13,0.11,0.24,0.24,0.24c0.13,0,0.24-0.11,0.24-0.24
						V2.28C13.67,2.15,13.56,2.04,13.43,2.04z"/>
					<path class="st99" d="M17.54,2.04c-0.13,0-0.24,0.11-0.24,0.24V4.3c0,0.13,0.11,0.24,0.24,0.24c0.13,0,0.24-0.11,0.24-0.24
						V2.28C17.79,2.15,17.68,2.04,17.54,2.04z"/>
					<path class="st99" d="M16.8,2.04c-0.13,0-0.24,0.11-0.24,0.24V4.3c0,0.13,0.11,0.24,0.24,0.24c0.13,0,0.24-0.11,0.24-0.24V2.28
						C17.04,2.15,16.93,2.04,16.8,2.04z"/>
					<path class="st99" d="M20.92,2.04c-0.13,0-0.24,0.11-0.24,0.24V4.3c0,0.13,0.11,0.24,0.24,0.24c0.13,0,0.24-0.11,0.24-0.24
						V2.28C21.16,2.15,21.05,2.04,20.92,2.04z"/>
					<path class="st99" d="M20.18,2.04c-0.13,0-0.24,0.11-0.24,0.24V4.3c0,0.13,0.11,0.24,0.24,0.24c0.13,0,0.24-0.11,0.24-0.24
						V2.28C20.42,2.15,20.31,2.04,20.18,2.04z"/>
				</g>
			</g>
		</g>
	</g>
	<g>
		<g>
			<g class="st98">
				<path class="st99" d="M7.42,2.04c-0.13,0-0.24,0.11-0.24,0.24v0.14c0-0.13,0.11-0.24,0.24-0.24c0.13,0,0.24,0.11,0.24,0.24V2.28
					C7.66,2.15,7.55,2.04,7.42,2.04z"/>
			</g>
			<g class="st98">
				<path class="st99" d="M7.42,4.4c-0.13,0-0.24-0.11-0.24-0.24V4.3c0,0.13,0.11,0.24,0.24,0.24c0.13,0,0.24-0.11,0.24-0.24V4.16
					C7.66,4.29,7.55,4.4,7.42,4.4z"/>
			</g>
		</g>
		<g>
			<g class="st98">
				<path class="st99" d="M6.68,2.04c-0.13,0-0.24,0.11-0.24,0.24v0.14c0-0.13,0.11-0.24,0.24-0.24c0.13,0,0.24,0.11,0.24,0.24V2.28
					C6.92,2.15,6.81,2.04,6.68,2.04z"/>
			</g>
			<g class="st98">
				<path class="st99" d="M6.68,4.4c-0.13,0-0.24-0.11-0.24-0.24V4.3c0,0.13,0.11,0.24,0.24,0.24c0.13,0,0.24-0.11,0.24-0.24V4.16
					C6.92,4.29,6.81,4.4,6.68,4.4z"/>
			</g>
		</g>
	</g>
	<g>
		<g>
			<g class="st98">
				<path class="st99" d="M10.8,2.04c-0.13,0-0.24,0.11-0.24,0.24v0.14c0-0.13,0.11-0.24,0.24-0.24c0.13,0,0.24,0.11,0.24,0.24V2.28
					C11.04,2.15,10.93,2.04,10.8,2.04z"/>
			</g>
			<g class="st98">
				<path class="st99" d="M10.8,4.4c-0.13,0-0.24-0.11-0.24-0.24V4.3c0,0.13,0.11,0.24,0.24,0.24c0.13,0,0.24-0.11,0.24-0.24V4.16
					C11.04,4.29,10.93,4.4,10.8,4.4z"/>
			</g>
		</g>
		<g>
			<g class="st98">
				<path class="st99" d="M10.05,2.04c-0.13,0-0.24,0.11-0.24,0.24v0.14c0-0.13,0.11-0.24,0.24-0.24c0.13,0,0.24,0.11,0.24,0.24
					V2.28C10.29,2.15,10.19,2.04,10.05,2.04z"/>
			</g>
			<g class="st98">
				<path class="st99" d="M10.05,4.4c-0.13,0-0.24-0.11-0.24-0.24V4.3c0,0.13,0.11,0.24,0.24,0.24c0.13,0,0.24-0.11,0.24-0.24V4.16
					C10.29,4.29,10.19,4.4,10.05,4.4z"/>
			</g>
		</g>
	</g>
	<g>
		<g>
			<g class="st98">
				<path class="st99" d="M14.17,2.04c-0.13,0-0.24,0.11-0.24,0.24v0.14c0-0.13,0.11-0.24,0.24-0.24c0.13,0,0.24,0.11,0.24,0.24
					V2.28C14.41,2.15,14.3,2.04,14.17,2.04z"/>
			</g>
			<g class="st98">
				<path class="st99" d="M14.17,4.4c-0.13,0-0.24-0.11-0.24-0.24V4.3c0,0.13,0.11,0.24,0.24,0.24c0.13,0,0.24-0.11,0.24-0.24V4.16
					C14.41,4.29,14.3,4.4,14.17,4.4z"/>
			</g>
		</g>
		<g>
			<g class="st98">
				<path class="st99" d="M13.43,2.04c-0.13,0-0.24,0.11-0.24,0.24v0.14c0-0.13,0.11-0.24,0.24-0.24c0.13,0,0.24,0.11,0.24,0.24
					V2.28C13.67,2.15,13.56,2.04,13.43,2.04z"/>
			</g>
			<g class="st98">
				<path class="st99" d="M13.43,4.4c-0.13,0-0.24-0.11-0.24-0.24V4.3c0,0.13,0.11,0.24,0.24,0.24c0.13,0,0.24-0.11,0.24-0.24V4.16
					C13.67,4.29,13.56,4.4,13.43,4.4z"/>
			</g>
		</g>
	</g>
	<g>
		<g>
			<g class="st98">
				<path class="st99" d="M17.54,2.04c-0.13,0-0.24,0.11-0.24,0.24v0.14c0-0.13,0.11-0.24,0.24-0.24c0.13,0,0.24,0.11,0.24,0.24
					V2.28C17.79,2.15,17.68,2.04,17.54,2.04z"/>
			</g>
			<g class="st98">
				<path class="st99" d="M17.54,4.4c-0.13,0-0.24-0.11-0.24-0.24V4.3c0,0.13,0.11,0.24,0.24,0.24c0.13,0,0.24-0.11,0.24-0.24V4.16
					C17.79,4.29,17.68,4.4,17.54,4.4z"/>
			</g>
		</g>
		<g>
			<g class="st98">
				<path class="st99" d="M16.8,2.04c-0.13,0-0.24,0.11-0.24,0.24v0.14c0-0.13,0.11-0.24,0.24-0.24c0.13,0,0.24,0.11,0.24,0.24V2.28
					C17.04,2.15,16.93,2.04,16.8,2.04z"/>
			</g>
			<g class="st98">
				<path class="st99" d="M16.8,4.4c-0.13,0-0.24-0.11-0.24-0.24V4.3c0,0.13,0.11,0.24,0.24,0.24c0.13,0,0.24-0.11,0.24-0.24V4.16
					C17.04,4.29,16.93,4.4,16.8,4.4z"/>
			</g>
		</g>
	</g>
	<g class="st98">
		<path class="st99" d="M20.18,2.04c-0.13,0-0.24,0.11-0.24,0.24v0.14c0-0.13,0.11-0.24,0.24-0.24c0.13,0,0.24,0.11,0.24,0.24V2.28
			C20.42,2.15,20.31,2.04,20.18,2.04z"/>
	</g>
	<g class="st98">
		<path class="st99" d="M20.18,4.4c-0.13,0-0.24-0.11-0.24-0.24V4.3c0,0.13,0.11,0.24,0.24,0.24c0.13,0,0.24-0.11,0.24-0.24V4.16
			C20.42,4.29,20.31,4.4,20.18,4.4z"/>
	</g>
	<g>
		<g class="st98">
			<path class="st99" d="M20.92,2.04c-0.13,0-0.24,0.11-0.24,0.24v0.14c0-0.13,0.11-0.24,0.24-0.24c0.13,0,0.24,0.11,0.24,0.24V2.28
				C21.16,2.15,21.05,2.04,20.92,2.04z"/>
		</g>
		<g class="st98">
			<path class="st99" d="M20.92,4.4c-0.13,0-0.24-0.11-0.24-0.24V4.3c0,0.13,0.11,0.24,0.24,0.24c0.13,0,0.24-0.11,0.24-0.24V4.16
				C21.16,4.29,21.05,4.4,20.92,4.4z"/>
		</g>
	</g>
</g>
</svg>
